# xmcd
# Track frame offsets:
# 150
# 24801
# 37526
# 55142
# 81145
# 96429
# 111088
# 118825
# 130538
# 147843
# 164030
# 177259
#
# Disc length: 2573 seconds
# Revision: 0
# Processed by: cddbd v1.5.2PL0 Copyright (c) Steve Scherf et al.
# Submitted via: VisiTrax 2.11.2.271 - For more info visit www.synapsa.com
#
DISCID=940a0b0c
DTITLE=Roadtrippers - Open Country-Demon Country
DYEAR=2010
DGENRE=Country??
TTITLE0=Roadtrippers - Best Day of the Trip
TTITLE1=Roadtrippers - Taipan in My Caravan
TTITLE2=Roadtrippers - T Shirt
TTITLE3=Roadtrippers - Black Mountain
TTITLE4=Roadtrippers - Open Country
TTITLE5=Roadtrippers - Hombre
TTITLE6=Roadtrippers - Mango Tree
TTITLE7=Roadtrippers - I Love the North
TTITLE8=Roadtrippers - La La Song, The
TTITLE9=Roadtrippers - Metaphysical Fishing Song
TTITLE10=Roadtrippers - Foot Falcon
TTITLE11=Smith, Fred - Baa Baa Black Sheep
EXTD=
EXTT0=
EXTT1=
EXTT2=
EXTT3=
EXTT4=
EXTT5=
EXTT6=
EXTT7=
EXTT8=
EXTT9=
EXTT10=
EXTT11=
PLAYORDER=
